<?xml version="1.0" encoding="utf-8"?>
<!-- Generator: Adobe Illustrator 15.0.0, SVG Export Plug-In . SVG Version: 6.00 Build 0)  -->
<svg version="1.2" baseProfile="tiny" id="History" xmlns="http://www.w3.org/2000/svg" xmlns:xlink="http://www.w3.org/1999/xlink"
	 x="0px" y="0px" width="60px" height="60px" viewBox="0 0 60 60" xml:space="preserve">
<g display="none">
	<path display="inline" fill="#8ECD00" d="M29.554,5.493c-6.604,0-11.958,5.354-11.958,11.958s5.354,11.958,11.958,11.958
		c6.603,0,11.958-5.354,11.958-11.958S36.157,5.493,29.554,5.493z M29.554,26.221c-4.835,0-8.77-3.934-8.77-8.77
		s3.934-8.77,8.77-8.77s8.769,3.934,8.769,8.77S34.389,26.221,29.554,26.221z"/>
	<path display="inline" fill="#8ECD00" d="M34.382,16.388h-4.03c-0.292,0-0.699-0.17-0.905-0.377l-3.37-3.403
		c-0.206-0.208-0.544-0.209-0.752-0.003l-0.755,0.747c-0.208,0.206-0.209,0.544-0.003,0.752l3.993,4.033
		c0.206,0.208,0.613,0.377,0.905,0.377h4.916c0.293,0,0.532-0.239,0.532-0.532v-1.063C34.915,16.628,34.675,16.388,34.382,16.388z"
		/>
</g>
<g display="none">
	<path display="inline" fill="#CCCCCB" d="M29.554,5.493c-6.604,0-11.958,5.354-11.958,11.958s5.354,11.958,11.958,11.958
		c6.603,0,11.958-5.354,11.958-11.958S36.157,5.493,29.554,5.493z M29.554,26.221c-4.835,0-8.77-3.934-8.77-8.77
		s3.934-8.77,8.77-8.77s8.769,3.934,8.769,8.77S34.389,26.221,29.554,26.221z"/>
	<path display="inline" fill="#CCCCCB" d="M34.382,16.388h-4.03c-0.292,0-0.699-0.17-0.905-0.377l-3.37-3.403
		c-0.206-0.208-0.544-0.209-0.752-0.003l-0.755,0.747c-0.208,0.206-0.209,0.544-0.003,0.752l3.993,4.033
		c0.206,0.208,0.613,0.377,0.905,0.377h4.916c0.293,0,0.532-0.239,0.532-0.532v-1.063C34.915,16.628,34.675,16.388,34.382,16.388z"
		/>
</g>
<g>
	<path fill="#888888" d="M29.554,5.493c-6.604,0-11.958,5.354-11.958,11.958s5.354,11.958,11.958,11.958
		c6.603,0,11.958-5.354,11.958-11.958S36.157,5.493,29.554,5.493z M29.554,26.221c-4.835,0-8.77-3.934-8.77-8.77
		s3.934-8.77,8.77-8.77s8.769,3.934,8.769,8.77S34.389,26.221,29.554,26.221z"/>
	<path fill="#888888" d="M34.382,16.388h-4.03c-0.292,0-0.699-0.17-0.905-0.377l-3.37-3.403c-0.206-0.208-0.544-0.209-0.752-0.003
		l-0.755,0.747c-0.208,0.206-0.209,0.544-0.003,0.752l3.993,4.033c0.206,0.208,0.613,0.377,0.905,0.377h4.916
		c0.293,0,0.532-0.239,0.532-0.532v-1.063C34.915,16.628,34.675,16.388,34.382,16.388z"/>
</g>
<g>
	<path fill="#888888" d="M37.926,34.935l-1.288,3.212l-3.931,9.768l-1.289-3.265l-1.53,3.53l1.53,3.93l1.261,3.197l1.274-3.197
		l3.933-9.757l3.527,9.132l1.422,3.676l1.155-3.769l2.508-8.15l5.409-0.079c0.441,0.717,1.233,1.194,2.119,1.194
		c1.356,0,2.469-1.115,2.469-2.455c0-1.341-1.112-2.442-2.469-2.442c-0.818,0-1.558,0.398-2.014,1.022l-6.559,0.079l-0.994,0.014
		l-0.295,0.942l-1.639,5.323l-3.354-8.68L37.926,34.935L37.926,34.935z M27.608,34.935l-1.274,3.212l-3.931,9.861l-3.797-9.251
		l-1.503-3.636l-1.073,3.783l-2.308,8.108H8.34c-0.455-0.664-1.207-1.114-2.066-1.114c-1.355,0-2.482,1.114-2.482,2.456
		c0,1.34,1.127,2.454,2.482,2.454c0.859,0,1.611-0.449,2.066-1.101h6.414h1.02l0.295-0.995l1.502-5.309l3.596,8.719l1.274,3.134
		l1.248-3.145l3.905-9.769l1.181,3l1.53-3.517l-1.423-3.664L27.608,34.935L27.608,34.935z"/>
</g>
</svg>
